<svg width="190" height="187" viewBox="0 0 190 187" fill="none" xmlns="http://www.w3.org/2000/svg">
  <path d="M102.798 186.72C98.7372 186.72 95.1037 186.164 92.451 185.757C92.1774 185.713 91.9414 185.672 91.7299 185.632C80.6949 183.498 73.2335 178.876 68.3526 174.409C59.3114 180.155 49.3165 183.168 39.1673 183.168C32.0628 183.168 25.6301 181.776 20.0453 179.032C7.34011 173.065 0 161.389 0 147.041C0 142.562 0.785678 138.884 1.16309 137.116L1.23148 136.799C1.27068 136.581 1.32698 136.29 1.37452 136.072C3.36834 127.116 10.6843 120.126 19.5861 118.646C20.6283 118.474 21.673 118.389 22.6993 118.389C28.3558 118.389 33.5645 120.579 37.359 124.311C38.8495 122.226 40.5589 119.29 42.29 115.193L49.1589 98.8563C35.8782 92.3437 22.263 76.6833 25.9025 55.1092C28.9167 38.3466 41.3713 23.4826 60.9816 13.1922C76.9596 4.80781 96.7084 7.62939e-06 115.163 7.62939e-06C116.591 7.62939e-06 118.043 0.0291636 119.479 0.0866423C137.98 0.879682 155.062 6.66879 167.595 16.3844C181.6 27.2432 189.312 42.1132 189.312 58.2547C189.312 62.7501 188.704 67.4092 187.551 71.7264C184.053 85.116 175.047 97.0137 161.954 105.675C164.713 111.873 166.107 118.595 166.107 125.732C166.107 132.08 164.969 138.446 162.631 145.195C151.649 175.859 123.538 186.719 102.797 186.719L102.798 186.72Z" fill="white"/>
  <path d="M102.798 180.873C99.183 180.873 95.9419 180.376 93.3367 179.977C93.1628 179.949 92.9814 179.918 92.82 179.887C80.6399 177.532 73.3703 171.898 69.1212 166.749C59.9982 173.687 49.7552 177.321 39.1677 177.321C32.9677 177.321 27.405 176.131 22.6309 173.785C11.9679 168.777 5.85466 159.033 5.85466 147.041C5.85466 143.174 6.55443 139.903 6.89056 138.33L6.97813 137.92C7.00274 137.772 7.0557 137.501 7.0974 137.31C8.57285 130.68 13.9763 125.507 20.5478 124.415C21.2593 124.298 21.982 124.238 22.6984 124.238C29.1198 124.238 34.3894 127.97 36.578 133.515C39.367 131.548 43.6537 127.006 47.6838 117.468L56.8789 95.5983C45.6492 92.4512 27.905 78.4322 31.6766 56.0809C34.3573 41.1747 45.7275 27.8039 63.7048 18.3707C78.8692 10.4128 97.6255 5.84784 115.164 5.84784C116.527 5.84784 117.9 5.87616 119.244 5.93072C136.53 6.67253 152.422 12.0255 164.004 21.0051C176.549 30.732 183.458 43.962 183.458 58.2559C183.458 62.2465 182.917 66.3846 181.894 70.2215C178.374 83.6982 168.447 95.5717 154.249 103.526C158.195 110.105 160.252 117.662 160.252 125.733C160.252 131.42 159.221 137.16 157.099 143.283C147.155 171.043 121.636 180.873 102.798 180.873Z" fill="#FF2052"/>
  <path d="M160.503 25.5101C149.849 17.2503 135.118 12.3204 119.01 11.6295C117.745 11.5774 116.452 11.5511 115.164 11.5511C98.5216 11.5511 80.7341 15.8766 66.3613 23.4197C49.9779 32.0165 39.6648 43.9246 37.3082 57.0289C33.7809 77.9307 52.1744 88.7463 59.2718 90.3207C60.4073 90.5727 61.5417 90.7002 62.6435 90.7002C63.5301 90.7002 64.395 90.6193 65.2332 90.459L52.9455 119.685C45.9903 136.145 37.6343 140.537 33.7939 140.537C33.5741 140.537 33.3672 140.523 33.2242 140.501C32.5828 140.398 32.067 139.592 31.9594 139.223C31.8839 133.92 27.9284 129.941 22.6988 129.941C22.2922 129.941 21.8869 129.975 21.4861 130.041C17.1878 130.755 13.6481 134.164 12.6777 138.524C12.653 138.637 12.6222 138.796 12.603 138.909C12.5746 139.072 12.5284 139.277 12.4762 139.52C12.158 141.007 11.5659 143.775 11.5659 147.04C11.5659 156.894 16.3734 164.562 25.1072 168.645C29.0994 170.617 33.8293 171.617 39.1681 171.617C50.3778 171.617 61.193 166.882 70.3251 158.245C70.7688 159.116 71.2618 159.963 71.8031 160.786C74.9758 165.61 81.3872 171.868 93.9081 174.288C94.0019 174.306 94.1078 174.324 94.2016 174.338C96.7413 174.728 99.618 175.169 102.798 175.169C119.78 175.169 142.772 166.349 151.702 141.417C153.613 135.904 154.541 130.773 154.541 125.733C154.541 115.507 150.834 107.379 145.711 101.424C159.397 95.3526 172.342 84.1976 176.376 68.7545C177.272 65.3908 177.747 61.7605 177.747 58.2559C177.747 45.7622 171.623 34.1332 160.502 25.5101H160.503Z" fill="#12264E"/>
  <path d="M130.122 98.6297C138.169 102.368 147.152 111.527 147.152 125.733C147.152 129.845 146.403 134.144 144.718 139.004C137.42 159.378 118.331 167.789 102.797 167.789C100.178 167.789 97.7447 167.415 95.3122 167.041C77.9075 163.677 72.854 151.341 75.2873 140.312C64.4329 158.07 50.3966 164.237 39.1677 164.237C35.0508 164.237 31.3071 163.49 28.3133 161.995C20.64 158.443 18.9556 152.089 18.9556 147.041C18.9556 143.864 19.7042 141.247 19.8914 140.126C20.2659 138.444 21.5758 137.509 22.6988 137.322C23.6346 137.322 24.5705 137.883 24.5705 139.378C24.5705 142.556 27.3775 147.041 32.0557 147.789C39.3545 148.911 51.1447 142.929 59.7539 122.555L77.9071 79.3785C88.7615 53.5839 105.605 40.6866 114.027 35.8271C116.647 34.3319 118.705 33.2102 120.577 32.463C118.705 32.089 116.647 31.9024 114.588 31.7153C92.3171 30.5937 73.6025 40.874 65.7428 53.5843C62.7481 58.6308 61.6251 64.0513 61.6251 68.5371C61.6251 74.145 63.3094 78.4439 64.9942 79.1919C66.8654 80.1266 66.4914 81.9955 64.807 82.9301C63.8712 83.3041 62.5609 83.4907 60.8765 83.1171C57.5082 82.3695 41.7879 74.8927 44.5949 58.2572C48.899 34.3319 86.8903 17.6968 118.705 19.005C149.211 20.3137 170.358 37.5099 170.358 58.2572C170.358 61.0611 169.983 64.0517 169.235 66.8557C164.743 84.0518 146.403 95.6404 130.121 98.631L130.122 98.6297ZM124.694 122.929C124.694 113.209 117.77 105.358 100.927 102.181C100.927 102.181 93.4406 100.873 92.692 100.686C92.692 100.686 93.0665 99.3774 81.4631 127.976C80.9018 129.097 80.5273 130.218 79.966 131.153C83.1479 129.097 88.2006 127.602 90.4467 128.349C92.1307 128.91 92.5047 130.592 90.2595 133.583C88.0134 137.135 90.0722 151.341 99.4295 152.648C110.845 154.144 119.642 144.424 123.758 129.284C124.32 127.042 124.694 124.985 124.694 122.929V122.929ZM148.088 58.6299C148.088 49.2842 141.912 40.4992 131.431 35.6393C127.501 38.4433 122.822 42.1815 118.893 46.8543C113.091 53.3965 108.413 62.3686 101.862 78.0694L98.8678 85.5462C102.611 86.4809 106.915 86.8541 111.407 86.8541C116.459 86.8541 121.886 86.2939 126.752 84.6116C135.549 81.8076 143.222 76.2001 146.59 66.6678C147.713 63.8638 148.087 61.2473 148.087 58.6304L148.088 58.6299Z" fill="white"/>
  <defs>
  <rect width="189.312" height="186.72" fill="white"/>
  </defs>
</svg>